<svg xmlns="http://www.w3.org/2000/svg" version="1.1" xmlns:xlink="http://www.w3.org/1999/xlink" width="22.14" height="25.28"><svg xmlns="http://www.w3.org/2000/svg" xmlns:bx="https://boxy-svg.com" id="SvgjsSvg1003" viewBox="433.54 322.42 22.14 25.28">
  <defs>
    <bx:export>
      <bx:file format="png"></bx:file>
    </bx:export>
  </defs>
  <g id="SvgjsG1002" featurekey="8L6ael-0" transform="matrix(1.708026, 0, 0, 1.708026, 126.023087, 306.887878)" fill="#e03a3e">
    <path d="M 192.305 9.095 C 192.492 9.095 192.655 9.165 192.795 9.305 C 192.935 9.445 193.005 9.608 193.005 9.795 L 193.005 23.195 C 193.005 23.382 192.935 23.545 192.795 23.685 C 192.655 23.825 192.492 23.895 192.305 23.895 L 190.545 23.895 C 190.305 23.895 190.112 23.802 189.965 23.615 L 180.185 10.215 C 180.105 10.108 180.058 9.988 180.045 9.855 C 180.032 9.722 180.055 9.595 180.115 9.475 C 180.175 9.355 180.262 9.262 180.375 9.195 C 180.488 9.128 180.612 9.095 180.745 9.095 L 182.505 9.095 C 182.612 9.095 182.718 9.118 182.825 9.165 C 182.932 9.212 183.012 9.282 183.065 9.375 L 190.085 18.915 L 190.085 9.795 C 190.085 9.608 190.152 9.445 190.285 9.305 C 190.418 9.165 190.585 9.095 190.785 9.095 L 192.305 9.095 Z M 182.265 18.795 C 182.452 18.795 182.615 18.862 182.755 18.995 C 182.895 19.128 182.965 19.295 182.965 19.495 L 182.965 23.195 C 182.965 23.382 182.895 23.545 182.755 23.685 C 182.615 23.825 182.452 23.895 182.265 23.895 L 180.745 23.895 C 180.558 23.895 180.395 23.825 180.255 23.685 C 180.115 23.545 180.045 23.382 180.045 23.195 L 180.045 19.495 C 180.045 19.295 180.115 19.128 180.255 18.995 C 180.395 18.862 180.558 18.795 180.745 18.795 L 182.265 18.795 Z"></path>
  </g>
</svg><style>@media (prefers-color-scheme: light) { :root { filter: none; } }
@media (prefers-color-scheme: dark) { :root { filter: none; } }
</style></svg>